<svg width="680" height="920" viewBox="0 0 680 920" xmlns="http://www.w3.org/2000/svg" style="background:#ffffff;font-family:Arial,sans-serif;">
<defs>
  <marker id="diamond" viewBox="0 0 14 10" refX="1" refY="5" markerWidth="10" markerHeight="8" orient="auto-start-reverse">
    <path d="M1 5L7 1L13 5L7 9Z" fill="none" stroke="#333" stroke-width="1"/>
  </marker>
  <marker id="arrow-open" viewBox="0 0 10 10" refX="9" refY="5" markerWidth="8" markerHeight="8" orient="auto">
    <path d="M1 1L9 5L1 9" fill="none" stroke="#333" stroke-width="1.2"/>
  </marker>
</defs>

<!-- LoanApplication -->
<rect x="200" y="30" width="280" height="34" rx="0" fill="#1d9e75" stroke="#1d9e75" stroke-width="0.5"/>
<text x="340" y="52" text-anchor="middle" font-size="13" font-weight="bold" fill="#ffffff">LoanApplication</text>
<rect x="200" y="64" width="280" height="356" rx="0" fill="#f9fefe" stroke="#1d9e75" stroke-width="0.8"/>
<line x1="200" y1="64" x2="480" y2="64" stroke="#1d9e75" stroke-width="0.5"/>
<text x="212" y="82"  font-size="11" fill="#333">- id: int</text>
<text x="212" y="98"  font-size="11" fill="#333">- fullName: string</text>
<text x="212" y="114" font-size="11" fill="#333">- email: string</text>
<text x="212" y="130" font-size="11" fill="#333">- phone: string</text>
<text x="212" y="146" font-size="11" fill="#333">- submittedAt: datetime</text>
<text x="212" y="162" font-size="11" fill="#333">- age: int</text>
<text x="212" y="178" font-size="11" fill="#333">- monthlyIncome: float</text>
<text x="212" y="194" font-size="11" fill="#333">- creditLineUsage: float</text>
<text x="212" y="210" font-size="11" fill="#333">- debtRatio: float</text>
<text x="212" y="226" font-size="11" fill="#333">- late30to59Days: int</text>
<text x="212" y="242" font-size="11" fill="#333">- late60to89Days: int</text>
<text x="212" y="258" font-size="11" fill="#333">- late90Days: int</text>
<text x="212" y="274" font-size="11" fill="#333">- openCreditLines: int</text>
<text x="212" y="290" font-size="11" fill="#333">- realEstateLoans: int</text>
<text x="212" y="306" font-size="11" fill="#333">- dependents: int</text>
<text x="212" y="322" font-size="11" fill="#333">- incomeWasMissing: bool</text>
<line x1="200" y1="334" x2="480" y2="334" stroke="#1d9e75" stroke-width="0.5"/>
<text x="212" y="350" font-size="11" fill="#333">- defaultProbability: float</text>
<text x="212" y="366" font-size="11" fill="#333">- riskVerdict: string</text>
<line x1="200" y1="378" x2="480" y2="378" stroke="#1d9e75" stroke-width="0.5"/>
<text x="212" y="394" font-size="11" fill="#333">- status: enum {pending, accepted, refused}</text>
<line x1="200" y1="406" x2="480" y2="406" stroke="#1d9e75" stroke-width="0.5"/>
<text x="212" y="422" font-size="11" fill="#333">+ submit(): void</text>
<text x="212" y="438" font-size="11" fill="#333">+ getDetails(): dict</text>
<rect x="200" y="30" width="280" height="390" rx="4" fill="none" stroke="#1d9e75" stroke-width="1.2"/>

<!-- Document -->
<rect x="20" y="560" width="210" height="34" rx="0" fill="#534ab7" stroke="#534ab7" stroke-width="0.5"/>
<text x="125" y="582" text-anchor="middle" font-size="13" font-weight="bold" fill="#ffffff">Document</text>
<rect x="20" y="594" width="210" height="144" rx="0" fill="#f8f8fe" stroke="#534ab7" stroke-width="0.8"/>
<text x="32" y="612" font-size="11" fill="#333">- id: int</text>
<text x="32" y="628" font-size="11" fill="#333">- applicationId: int</text>
<text x="32" y="644" font-size="11" fill="#333">- documentType: string</text>
<text x="32" y="660" font-size="11" fill="#333">- filePath: string</text>
<text x="32" y="676" font-size="11" fill="#333">- uploadedAt: datetime</text>
<line x1="20" y1="688" x2="230" y2="688" stroke="#534ab7" stroke-width="0.5"/>
<text x="32" y="706" font-size="11" fill="#333">+ upload(): void</text>
<text x="32" y="722" font-size="11" fill="#333">+ getFile(): file</text>
<rect x="20" y="560" width="210" height="178" rx="4" fill="none" stroke="#534ab7" stroke-width="1.2"/>

<!-- BankEmployee -->
<rect x="450" y="560" width="210" height="34" rx="0" fill="#534ab7" stroke="#534ab7" stroke-width="0.5"/>
<text x="555" y="582" text-anchor="middle" font-size="13" font-weight="bold" fill="#ffffff">BankEmployee</text>
<rect x="450" y="594" width="210" height="144" rx="0" fill="#f8f8fe" stroke="#534ab7" stroke-width="0.8"/>
<text x="462" y="612" font-size="11" fill="#333">- id: int</text>
<text x="462" y="628" font-size="11" fill="#333">- name: string</text>
<text x="462" y="644" font-size="11" fill="#333">- email: string</text>
<text x="462" y="660" font-size="11" fill="#333">- passwordHash: string</text>
<line x1="450" y1="674" x2="660" y2="674" stroke="#534ab7" stroke-width="0.5"/>
<text x="462" y="692" font-size="11" fill="#333">+ login(): token</text>
<text x="462" y="708" font-size="11" fill="#333">+ reviewApplication(): void</text>
<text x="462" y="724" font-size="11" fill="#333">+ makeDecision(): void</text>
<rect x="450" y="560" width="210" height="178" rx="4" fill="none" stroke="#534ab7" stroke-width="1.2"/>

<!-- Prediction -->
<rect x="20" y="780" width="210" height="34" rx="0" fill="#888780" stroke="#888780" stroke-width="0.5"/>
<text x="125" y="802" text-anchor="middle" font-size="13" font-weight="bold" fill="#ffffff">Prediction</text>
<rect x="20" y="814" width="210" height="96" rx="0" fill="#f8f8f8" stroke="#888780" stroke-width="0.8"/>
<text x="32" y="832" font-size="11" fill="#333">- id: int</text>
<text x="32" y="848" font-size="11" fill="#333">- applicationId: int</text>
<text x="32" y="864" font-size="11" fill="#333">- probability: float</text>
<text x="32" y="880" font-size="11" fill="#333">- computedAt: datetime</text>
<line x1="20" y1="890" x2="230" y2="890" stroke="#888780" stroke-width="0.5"/>
<text x="32" y="906" font-size="11" fill="#333">+ compute(): float</text>
<rect x="20" y="780" width="210" height="130" rx="4" fill="none" stroke="#888780" stroke-width="1.2"/>

<!-- Notification -->
<rect x="450" y="780" width="210" height="34" rx="0" fill="#888780" stroke="#888780" stroke-width="0.5"/>
<text x="555" y="802" text-anchor="middle" font-size="13" font-weight="bold" fill="#ffffff">Notification</text>
<rect x="450" y="814" width="210" height="96" rx="0" fill="#f8f8f8" stroke="#888780" stroke-width="0.8"/>
<text x="462" y="832" font-size="11" fill="#333">- id: int</text>
<text x="462" y="848" font-size="11" fill="#333">- applicationId: int</text>
<text x="462" y="864" font-size="11" fill="#333">- recipientEmail: string</text>
<text x="462" y="880" font-size="11" fill="#333">- sentAt: datetime</text>
<line x1="450" y1="890" x2="660" y2="890" stroke="#888780" stroke-width="0.5"/>
<text x="462" y="906" font-size="11" fill="#333">+ send(): void</text>
<rect x="450" y="780" width="210" height="130" rx="4" fill="none" stroke="#888780" stroke-width="1.2"/>

<!-- Relationships -->
<line x1="230" y1="420" x2="125" y2="560" stroke="#333" stroke-width="0.8" marker-start="url(#diamond)"/>
<text x="148" y="488" font-size="10" fill="#555" text-anchor="middle">1</text>
<text x="112" y="554" font-size="10" fill="#555" text-anchor="middle">0..*</text>

<line x1="215" y1="420" x2="125" y2="780" stroke="#333" stroke-width="0.8" marker-start="url(#diamond)"/>
<text x="162" y="530" font-size="10" fill="#555">1</text>
<text x="112" y="774" font-size="10" fill="#555" text-anchor="middle">1</text>

<line x1="465" y1="420" x2="555" y2="780" stroke="#333" stroke-width="0.8" marker-start="url(#diamond)"/>
<text x="522" y="530" font-size="10" fill="#555">1</text>
<text x="568" y="774" font-size="10" fill="#555" text-anchor="middle">1</text>

<line x1="480" y1="420" x2="555" y2="560" stroke="#333" stroke-width="0.8" marker-end="url(#arrow-open)"/>
<text x="530" y="484" font-size="10" fill="#555" text-anchor="middle">1</text>
<text x="568" y="554" font-size="10" fill="#555" text-anchor="middle">0..*</text>

<!-- Legend -->
<rect x="236" y="490" width="208" height="56" rx="4" fill="#fafafa" stroke="#ccc" stroke-width="0.8"/>
<text x="340" y="506" text-anchor="middle" font-size="12" font-weight="bold" fill="#111">Legend</text>
<line x1="248" y1="522" x2="280" y2="522" stroke="#333" stroke-width="0.8" marker-start="url(#diamond)"/>
<text x="288" y="526" font-size="11" fill="#333">Composition</text>
<line x1="248" y1="538" x2="280" y2="538" stroke="#333" stroke-width="0.8" marker-end="url(#arrow-open)"/>
<text x="288" y="542" font-size="11" fill="#333">Association</text>
</svg>
