<svg width="680" height="980" viewBox="0 0 680 980" xmlns="http://www.w3.org/2000/svg" style="background:#ffffff;font-family:Arial,sans-serif;">
<defs>
  <marker id="arr" viewBox="0 0 10 10" refX="8" refY="5" markerWidth="6" markerHeight="6" orient="auto-start-reverse">
    <path d="M2 1L8 5L2 9" fill="none" stroke="#333" stroke-width="1.5" stroke-linecap="round" stroke-linejoin="round"/>
  </marker>
</defs>

<!-- Participant boxes -->
<rect x="10" y="20" width="90" height="40" rx="4" fill="#1d9e75" stroke="#1d9e75"/>
<text x="55" y="38" text-anchor="middle" font-size="12" font-weight="bold" fill="#fff">Applicant</text>

<rect x="116" y="20" width="90" height="40" rx="4" fill="#534ab7" stroke="#534ab7"/>
<text x="161" y="45" text-anchor="middle" font-size="12" font-weight="bold" fill="#fff">Frontend</text>

<rect x="222" y="20" width="90" height="40" rx="4" fill="#534ab7" stroke="#534ab7"/>
<text x="267" y="45" text-anchor="middle" font-size="12" font-weight="bold" fill="#fff">FastAPI</text>

<rect x="328" y="20" width="90" height="40" rx="4" fill="#888780" stroke="#888780"/>
<text x="373" y="45" text-anchor="middle" font-size="12" font-weight="bold" fill="#fff">MySQL</text>

<rect x="434" y="20" width="90" height="40" rx="4" fill="#888780" stroke="#888780"/>
<text x="479" y="38" text-anchor="middle" font-size="12" font-weight="bold" fill="#fff">MLP</text>
<text x="479" y="53" text-anchor="middle" font-size="12" font-weight="bold" fill="#fff">model</text>

<rect x="570" y="20" width="100" height="40" rx="4" fill="#1d9e75" stroke="#1d9e75"/>
<text x="620" y="38" text-anchor="middle" font-size="12" font-weight="bold" fill="#fff">Bank</text>
<text x="620" y="53" text-anchor="middle" font-size="12" font-weight="bold" fill="#fff">employee</text>

<!-- Lifelines -->
<line x1="55"  y1="60" x2="55"  y2="960" stroke="#aaa" stroke-width="0.6" stroke-dasharray="4 4"/>
<line x1="161" y1="60" x2="161" y2="960" stroke="#aaa" stroke-width="0.6" stroke-dasharray="4 4"/>
<line x1="267" y1="60" x2="267" y2="960" stroke="#aaa" stroke-width="0.6" stroke-dasharray="4 4"/>
<line x1="373" y1="60" x2="373" y2="960" stroke="#aaa" stroke-width="0.6" stroke-dasharray="4 4"/>
<line x1="479" y1="60" x2="479" y2="960" stroke="#aaa" stroke-width="0.6" stroke-dasharray="4 4"/>
<line x1="620" y1="60" x2="620" y2="960" stroke="#aaa" stroke-width="0.6" stroke-dasharray="4 4"/>

<!-- Section 1 -->
<rect x="10" y="82" width="660" height="18" rx="3" fill="#e8f8f4" stroke="#1d9e75" stroke-width="0.5"/>
<text x="340" y="95" text-anchor="middle" font-size="11" font-weight="bold" fill="#085041">Application submission</text>

<line x1="55" y1="118" x2="154" y2="118" stroke="#333" stroke-width="1" marker-end="url(#arr)"/>
<text x="104" y="113" text-anchor="middle" font-size="10" fill="#333">Submit form + documents</text>

<line x1="161" y1="138" x2="260" y2="138" stroke="#333" stroke-width="1" marker-end="url(#arr)"/>
<text x="210" y="133" text-anchor="middle" font-size="10" fill="#333">POST /apply (JSON)</text>

<line x1="267" y1="158" x2="366" y2="158" stroke="#333" stroke-width="1" marker-end="url(#arr)"/>
<text x="315" y="153" text-anchor="middle" font-size="10" fill="#333">Save application</text>

<line x1="366" y1="174" x2="267" y2="174" stroke="#999" stroke-width="0.8" stroke-dasharray="4 3" marker-end="url(#arr)"/>
<text x="315" y="170" text-anchor="middle" font-size="10" fill="#555">application_id</text>

<!-- Section 2 -->
<rect x="10" y="196" width="660" height="18" rx="3" fill="#e8f8f4" stroke="#1d9e75" stroke-width="0.5"/>
<text x="340" y="209" text-anchor="middle" font-size="11" font-weight="bold" fill="#085041">Preprocessing and prediction</text>

<rect x="254" y="222" width="26" height="44" rx="2" fill="#f0f0f0" stroke="#aaa" stroke-width="0.6"/>
<text x="267" y="239" text-anchor="middle" font-size="9" fill="#333">log1p</text>
<text x="267" y="255" text-anchor="middle" font-size="9" fill="#333">scale</text>

<line x1="280" y1="236" x2="472" y2="236" stroke="#333" stroke-width="1" marker-end="url(#arr)"/>
<text x="376" y="231" text-anchor="middle" font-size="10" fill="#333">forward pass (1,11)</text>

<line x1="472" y1="254" x2="280" y2="254" stroke="#999" stroke-width="0.8" stroke-dasharray="4 3" marker-end="url(#arr)"/>
<text x="376" y="250" text-anchor="middle" font-size="10" fill="#555">probability: 0.18</text>

<line x1="267" y1="276" x2="366" y2="276" stroke="#333" stroke-width="1" marker-end="url(#arr)"/>
<text x="315" y="271" text-anchor="middle" font-size="10" fill="#333">Save prediction + verdict</text>

<line x1="366" y1="292" x2="267" y2="292" stroke="#999" stroke-width="0.8" stroke-dasharray="4 3" marker-end="url(#arr)"/>
<text x="315" y="288" text-anchor="middle" font-size="10" fill="#555">saved</text>

<line x1="260" y1="312" x2="161" y2="312" stroke="#999" stroke-width="0.8" stroke-dasharray="4 3" marker-end="url(#arr)"/>
<text x="210" y="308" text-anchor="middle" font-size="10" fill="#555">200 OK — received</text>

<line x1="154" y1="330" x2="55" y2="330" stroke="#999" stroke-width="0.8" stroke-dasharray="4 3" marker-end="url(#arr)"/>
<text x="104" y="326" text-anchor="middle" font-size="10" fill="#555">Show confirmation</text>

<!-- Section 3 -->
<rect x="10" y="352" width="660" height="18" rx="3" fill="#eeedfe" stroke="#534ab7" stroke-width="0.5"/>
<text x="340" y="365" text-anchor="middle" font-size="11" font-weight="bold" fill="#26215c">Bank employee login</text>

<line x1="613" y1="388" x2="274" y2="388" stroke="#333" stroke-width="1" marker-end="url(#arr)"/>
<text x="440" y="383" text-anchor="middle" font-size="10" fill="#333">POST /login (email, password)</text>

<line x1="267" y1="406" x2="366" y2="406" stroke="#333" stroke-width="1" marker-end="url(#arr)"/>
<text x="315" y="401" text-anchor="middle" font-size="10" fill="#333">Verify credentials</text>

<line x1="366" y1="422" x2="267" y2="422" stroke="#999" stroke-width="0.8" stroke-dasharray="4 3" marker-end="url(#arr)"/>
<text x="315" y="418" text-anchor="middle" font-size="10" fill="#555">employee record</text>

<line x1="274" y1="442" x2="613" y2="442" stroke="#999" stroke-width="0.8" stroke-dasharray="4 3" marker-end="url(#arr)"/>
<text x="440" y="438" text-anchor="middle" font-size="10" fill="#555">JWT token</text>

<!-- Section 4 -->
<rect x="10" y="462" width="660" height="18" rx="3" fill="#eeedfe" stroke="#534ab7" stroke-width="0.5"/>
<text x="340" y="475" text-anchor="middle" font-size="11" font-weight="bold" fill="#26215c">Application review</text>

<line x1="613" y1="498" x2="274" y2="498" stroke="#333" stroke-width="1" marker-end="url(#arr)"/>
<text x="440" y="493" text-anchor="middle" font-size="10" fill="#333">GET /applications (JWT)</text>

<line x1="267" y1="516" x2="366" y2="516" stroke="#333" stroke-width="1" marker-end="url(#arr)"/>
<text x="315" y="511" text-anchor="middle" font-size="10" fill="#333">Fetch all applications</text>

<line x1="366" y1="532" x2="267" y2="532" stroke="#999" stroke-width="0.8" stroke-dasharray="4 3" marker-end="url(#arr)"/>
<text x="315" y="528" text-anchor="middle" font-size="10" fill="#555">applications list</text>

<line x1="274" y1="550" x2="613" y2="550" stroke="#999" stroke-width="0.8" stroke-dasharray="4 3" marker-end="url(#arr)"/>
<text x="440" y="546" text-anchor="middle" font-size="10" fill="#555">applications + risk verdicts</text>

<line x1="613" y1="570" x2="274" y2="570" stroke="#333" stroke-width="1" marker-end="url(#arr)"/>
<text x="440" y="565" text-anchor="middle" font-size="10" fill="#333">GET /applications/{id}</text>

<line x1="267" y1="588" x2="366" y2="588" stroke="#333" stroke-width="1" marker-end="url(#arr)"/>
<text x="315" y="583" text-anchor="middle" font-size="10" fill="#333">Fetch details + documents</text>

<line x1="366" y1="604" x2="267" y2="604" stroke="#999" stroke-width="0.8" stroke-dasharray="4 3" marker-end="url(#arr)"/>
<text x="315" y="600" text-anchor="middle" font-size="10" fill="#555">full application record</text>

<line x1="274" y1="622" x2="613" y2="622" stroke="#999" stroke-width="0.8" stroke-dasharray="4 3" marker-end="url(#arr)"/>
<text x="440" y="618" text-anchor="middle" font-size="10" fill="#555">details + probability + verdict</text>

<!-- Section 5 -->
<rect x="10" y="644" width="660" height="18" rx="3" fill="#f1efe8" stroke="#888780" stroke-width="0.5"/>
<text x="340" y="657" text-anchor="middle" font-size="11" font-weight="bold" fill="#2c2c2a">Decision and notification</text>

<line x1="613" y1="680" x2="274" y2="680" stroke="#333" stroke-width="1" marker-end="url(#arr)"/>
<text x="440" y="675" text-anchor="middle" font-size="10" fill="#333">POST /decision (accept/refuse)</text>

<line x1="267" y1="698" x2="366" y2="698" stroke="#333" stroke-width="1" marker-end="url(#arr)"/>
<text x="315" y="693" text-anchor="middle" font-size="10" fill="#333">Update status</text>

<line x1="366" y1="714" x2="267" y2="714" stroke="#999" stroke-width="0.8" stroke-dasharray="4 3" marker-end="url(#arr)"/>
<text x="315" y="710" text-anchor="middle" font-size="10" fill="#555">updated</text>

<line x1="260" y1="736" x2="62" y2="736" stroke="#999" stroke-width="0.8" stroke-dasharray="4 3" marker-end="url(#arr)"/>
<text x="160" y="731" text-anchor="middle" font-size="10" fill="#555">Send email (SMTP)</text>

<line x1="274" y1="756" x2="613" y2="756" stroke="#999" stroke-width="0.8" stroke-dasharray="4 3" marker-end="url(#arr)"/>
<text x="440" y="752" text-anchor="middle" font-size="10" fill="#555">200 OK — decision saved</text>

<rect x="10" y="776" width="90" height="30" rx="4" fill="#e8f8f4" stroke="#1d9e75" stroke-width="0.8"/>
<text x="55" y="796" text-anchor="middle" font-size="10" fill="#085041">Email received</text>

<!-- Legend -->
<rect x="196" y="832" width="288" height="56" rx="4" fill="#fafafa" stroke="#ccc" stroke-width="0.8"/>
<text x="340" y="848" text-anchor="middle" font-size="12" font-weight="bold" fill="#111">Legend</text>
<line x1="210" y1="864" x2="250" y2="864" stroke="#333" stroke-width="1" marker-end="url(#arr)"/>
<text x="258" y="868" font-size="11" fill="#333">Synchronous call</text>
<line x1="210" y1="880" x2="250" y2="880" stroke="#999" stroke-width="0.8" stroke-dasharray="4 3" marker-end="url(#arr)"/>
<text x="258" y="884" font-size="11" fill="#555">Return / async response</text>
</svg>
