<svg width="680" height="780" viewBox="0 0 680 780" xmlns="http://www.w3.org/2000/svg" style="background:#ffffff;font-family:Arial,sans-serif;">
<defs>
  <marker id="arrow" viewBox="0 0 10 10" refX="8" refY="5" markerWidth="6" markerHeight="6" orient="auto-start-reverse">
    <path d="M2 1L8 5L2 9" fill="none" stroke="#555" stroke-width="1.5" stroke-linecap="round" stroke-linejoin="round"/>
  </marker>
</defs>

<!-- System boundary -->
<rect x="160" y="40" width="360" height="700" rx="12" fill="none" stroke="#333" stroke-width="1.2" stroke-dasharray="6 4"/>
<text x="340" y="28" text-anchor="middle" font-size="14" font-weight="bold" fill="#111">Loan Risk Prediction System</text>

<!-- Applicant actor -->
<ellipse cx="72" cy="200" rx="22" ry="22" fill="none" stroke="#333" stroke-width="1"/>
<line x1="72" y1="222" x2="72" y2="270" stroke="#333" stroke-width="1"/>
<line x1="44" y1="242" x2="100" y2="242" stroke="#333" stroke-width="1"/>
<line x1="72" y1="270" x2="50" y2="300" stroke="#333" stroke-width="1"/>
<line x1="72" y1="270" x2="94" y2="300" stroke="#333" stroke-width="1"/>
<text x="72" y="320" text-anchor="middle" font-size="13" font-weight="bold" fill="#111">Applicant</text>

<!-- Bank Employee actor -->
<ellipse cx="608" cy="380" rx="22" ry="22" fill="none" stroke="#333" stroke-width="1"/>
<line x1="608" y1="402" x2="608" y2="450" stroke="#333" stroke-width="1"/>
<line x1="580" y1="422" x2="636" y2="422" stroke="#333" stroke-width="1"/>
<line x1="608" y1="450" x2="586" y2="480" stroke="#333" stroke-width="1"/>
<line x1="608" y1="450" x2="630" y2="480" stroke="#333" stroke-width="1"/>
<text x="608" y="500" text-anchor="middle" font-size="13" font-weight="bold" fill="#111">Bank employee</text>

<!-- System actor -->
<ellipse cx="72" cy="560" rx="22" ry="22" fill="none" stroke="#333" stroke-width="1"/>
<line x1="72" y1="582" x2="72" y2="630" stroke="#333" stroke-width="1"/>
<line x1="44" y1="602" x2="100" y2="602" stroke="#333" stroke-width="1"/>
<line x1="72" y1="630" x2="50" y2="660" stroke="#333" stroke-width="1"/>
<line x1="72" y1="630" x2="94" y2="660" stroke="#333" stroke-width="1"/>
<text x="72" y="680" text-anchor="middle" font-size="13" font-weight="bold" fill="#111">System</text>
<text x="72" y="696" text-anchor="middle" font-size="11" fill="#555">(automated)</text>

<!-- UC1 -->
<ellipse cx="330" cy="84" rx="150" ry="20" fill="#e8f8f4" stroke="#1d9e75" stroke-width="1"/>
<text x="330" y="89" text-anchor="middle" font-size="12" font-weight="bold" fill="#085041">Fill loan application form</text>

<!-- UC2 -->
<ellipse cx="330" cy="144" rx="150" ry="20" fill="#e8f8f4" stroke="#1d9e75" stroke-width="1"/>
<text x="330" y="149" text-anchor="middle" font-size="12" font-weight="bold" fill="#085041">Upload documents</text>

<!-- UC3 -->
<ellipse cx="330" cy="204" rx="150" ry="20" fill="#e8f8f4" stroke="#1d9e75" stroke-width="1"/>
<text x="330" y="209" text-anchor="middle" font-size="12" font-weight="bold" fill="#085041">Receive decision notification</text>

<!-- UC4 -->
<ellipse cx="330" cy="294" rx="150" ry="20" fill="#eeedfe" stroke="#534ab7" stroke-width="1"/>
<text x="330" y="299" text-anchor="middle" font-size="12" font-weight="bold" fill="#26215c">Log in to dashboard</text>

<!-- UC5 -->
<ellipse cx="330" cy="354" rx="150" ry="20" fill="#eeedfe" stroke="#534ab7" stroke-width="1"/>
<text x="330" y="359" text-anchor="middle" font-size="12" font-weight="bold" fill="#26215c">View all applications</text>

<!-- UC6 -->
<ellipse cx="330" cy="414" rx="150" ry="20" fill="#eeedfe" stroke="#534ab7" stroke-width="1"/>
<text x="330" y="419" text-anchor="middle" font-size="12" font-weight="bold" fill="#26215c">Review application details</text>

<!-- UC7 -->
<ellipse cx="330" cy="474" rx="150" ry="20" fill="#eeedfe" stroke="#534ab7" stroke-width="1"/>
<text x="330" y="479" text-anchor="middle" font-size="12" font-weight="bold" fill="#26215c">View model prediction</text>

<!-- UC8 -->
<ellipse cx="330" cy="534" rx="150" ry="20" fill="#eeedfe" stroke="#534ab7" stroke-width="1"/>
<text x="330" y="539" text-anchor="middle" font-size="12" font-weight="bold" fill="#26215c">Accept or refuse application</text>

<!-- UC9 -->
<ellipse cx="330" cy="594" rx="150" ry="20" fill="#f1efe8" stroke="#5f5e5a" stroke-width="1"/>
<text x="330" y="599" text-anchor="middle" font-size="12" font-weight="bold" fill="#2c2c2a">Apply preprocessing</text>

<!-- UC10 -->
<ellipse cx="330" cy="654" rx="150" ry="20" fill="#f1efe8" stroke="#5f5e5a" stroke-width="1"/>
<text x="330" y="659" text-anchor="middle" font-size="12" font-weight="bold" fill="#2c2c2a">Run MLP prediction</text>

<!-- UC11 -->
<ellipse cx="330" cy="714" rx="150" ry="20" fill="#f1efe8" stroke="#5f5e5a" stroke-width="1"/>
<text x="330" y="719" text-anchor="middle" font-size="12" font-weight="bold" fill="#2c2c2a">Send email notification</text>

<!-- Applicant associations -->
<line x1="94" y1="220" x2="180" y2="84" stroke="#333" stroke-width="0.8"/>
<line x1="94" y1="228" x2="180" y2="144" stroke="#333" stroke-width="0.8"/>
<line x1="94" y1="235" x2="180" y2="204" stroke="#333" stroke-width="0.8"/>

<!-- Bank employee associations -->
<line x1="586" y1="370" x2="480" y2="294" stroke="#333" stroke-width="0.8"/>
<line x1="586" y1="378" x2="480" y2="354" stroke="#333" stroke-width="0.8"/>
<line x1="586" y1="385" x2="480" y2="414" stroke="#333" stroke-width="0.8"/>
<line x1="586" y1="392" x2="480" y2="474" stroke="#333" stroke-width="0.8"/>
<line x1="586" y1="400" x2="480" y2="534" stroke="#333" stroke-width="0.8"/>

<!-- System associations -->
<line x1="94" y1="548" x2="180" y2="594" stroke="#333" stroke-width="0.8"/>
<line x1="94" y1="558" x2="180" y2="654" stroke="#333" stroke-width="0.8"/>
<line x1="94" y1="568" x2="180" y2="714" stroke="#333" stroke-width="0.8"/>

<!-- include: view prediction -> preprocessing -->
<line x1="330" y1="494" x2="330" y2="574" stroke="#333" stroke-width="0.7" stroke-dasharray="5 3" marker-end="url(#arrow)"/>
<text x="336" y="536" font-size="10" fill="#555">«include»</text>

<!-- include: preprocessing -> MLP -->
<line x1="330" y1="614" x2="330" y2="634" stroke="#333" stroke-width="0.7" stroke-dasharray="5 3" marker-end="url(#arrow)"/>
<text x="336" y="628" font-size="10" fill="#555">«include»</text>

<!-- include: accept/refuse -> send email -->
<line x1="330" y1="554" x2="330" y2="694" stroke="#333" stroke-width="0.7" stroke-dasharray="5 3" marker-end="url(#arrow)"/>
<text x="336" y="630" font-size="10" fill="#555">«include»</text>

<!-- Legend -->
<rect x="460" y="64" width="178" height="100" rx="6" fill="#fafafa" stroke="#ccc" stroke-width="0.8"/>
<text x="549" y="82" text-anchor="middle" font-size="12" font-weight="bold" fill="#111">Legend</text>
<line x1="474" y1="100" x2="504" y2="100" stroke="#333" stroke-width="0.8"/>
<text x="510" y="104" font-size="11" fill="#333">Association</text>
<line x1="474" y1="120" x2="504" y2="120" stroke="#333" stroke-width="0.7" stroke-dasharray="5 3" marker-end="url(#arrow)"/>
<text x="510" y="124" font-size="11" fill="#333">«include»</text>
<ellipse cx="484" cy="148" rx="12" ry="8" fill="#e8f8f4" stroke="#1d9e75" stroke-width="0.8"/>
<text x="502" y="152" font-size="11" fill="#333">Use case</text>
</svg>
